HIERARCHY
ROOT pelvis
{
  OFFSET 0 100 0
  CHANNELS 6 Xposition Yposition Zposition Zrotation Xrotation Yrotation
  JOINT pelvis_right_femur
  {
    OFFSET -10.78128 -3.44521 -0.5502486
    CHANNELS 3 Zrotation Xrotation Yrotation
    JOINT right_femur_tibia
    {
      OFFSET -0.8047443 -44.0398 -0.1307829
      CHANNELS 3 Zrotation Xrotation Yrotation
      JOINT right_tibia_foot
      {
        OFFSET 3.006224 -47.83518 -5
        CHANNELS 3 Zrotation Xrotation Yrotation
        End Site
        {
          OFFSET 0 -5 15
        }
      }
    }
  }
  JOINT pelvis_left_femur
  {
    OFFSET 10.78128 -3.44521 -0.5502486
    CHANNELS 3 Zrotation Xrotation Yrotation
    JOINT left_femur_tibia
    {
      OFFSET 0.8047443 -44.0398 -0.1307829
      CHANNELS 3 Zrotation Xrotation Yrotation
      JOINT left_tibia_foot
      {
        OFFSET -4.370144 -48.10324 -4.275266
        CHANNELS 3 Zrotation Xrotation Yrotation
        End Site
        {
          OFFSET 0 -5 15
        }
      }
    }
  }
  JOINT pelvis_spine1
  {
    OFFSET 0 6.468898 -3.129235
    CHANNELS 3 Zrotation Xrotation Yrotation
    JOINT spine1
    {
      OFFSET 0 23.15396 4.99043
      CHANNELS 3 Zrotation Xrotation Yrotation
      JOINT spine2
      {
        OFFSET 0 20.79997 -5.064912
        CHANNELS 3 Zrotation Xrotation Yrotation
        JOINT neck
        {
          OFFSET 0 14.38658 9.616178
          CHANNELS 3 Zrotation Xrotation Yrotation
          End Site
          {
            OFFSET 0 20 0
          }
        }
      }
      JOINT right_manubrium
      {
        OFFSET -5.722621 16.35077 3.967754
        CHANNELS 3 Zrotation Xrotation Yrotation
        JOINT right_clavicle
        {
          OFFSET -13.16364 1.694482 -4.693211
          CHANNELS 3 Zrotation Xrotation Yrotation
          JOINT right_humerus
          {
            OFFSET -28.5034 -0.3100689 -2.792744
            CHANNELS 3 Zrotation Xrotation Yrotation
            JOINT right_radius
            {
              OFFSET -25.15693 0.02248979 -1.271978
              CHANNELS 3 Zrotation Xrotation Yrotation
              End Site
              {
                OFFSET -15 0 0
              }
            }
          }
        }
      }
      JOINT left_manubrium
      {
        OFFSET 5.722621 16.35077 3.967754
        CHANNELS 3 Zrotation Xrotation Yrotation
        JOINT left_clavicle
        {
          OFFSET 13.16364 1.694482 -4.693211
          CHANNELS 3 Zrotation Xrotation Yrotation
          JOINT left_humerus
          {
            OFFSET 29.39168 -1.063119 -2.237045
            CHANNELS 3 Zrotation Xrotation Yrotation
            JOINT left_radius
            {
              OFFSET 24.59957 -0.9528479 0.9047498
              CHANNELS 3 Zrotation Xrotation Yrotation
              End Site
              {
                OFFSET 15 -0 -0
              }
            }
          }
        }
      }
    }
  }
}
MOTION
Frames: 11
Frame Time: 0.0416666666667
0 103.5113 0 2.551553 -0.9111748 0.02735968 1.89668 -13.65188 10.66397 -0 39.18944 -0 -5.979808 -17.7859 -3.887418 -8.49206 9.663562 -22.46539 -0 3.21644 -0 17.9908 -12.46004 30.62153 -5.515973 -5.02681 5.243922 2.769438 11.00374 -8.070915 1.32131 22.29658 5.872339 1.933244 -24.24047 9.356542 6.656946 -20.57537 11.89614 86.70042 38.41324 -19.159 -0 0 14.64461 -7.259523 9.147782 5.178901 5.023444 -19.85099 -1.709557 -90.40976 21.47433 18.36585 0 0 -16.12622 15.25221 14.35367 -3.575176
0.2736663 103.9898 1.433248 2.103125 -0.6731829 0.04758723 2.378744 -15.13027 10.16561 -0 39.46545 -0 -6.358586 -16.00444 -3.680617 -8.136614 9.462148 -21.86614 -0 3.832528 -0 17.00382 -13.08595 29.71537 -5.200144 -4.644889 5.023113 2.796407 11.04333 -8.172793 1.240966 22.02844 6.036049 2.179151 -24.41752 9.223066 6.780069 -20.45505 11.97809 86.48825 38.30819 -18.99878 -0 0 14.69669 -7.752292 9.25206 5.420771 5.196987 -20.0831 -1.693122 -90.45124 21.10623 18.50972 0 0 -15.8619 15.05651 14.30167 -3.365132
0.5628963 104.2572 2.730352 1.943311 -0.3395518 -0.1270234 3.072718 -15.94543 11.07049 -0 36.14534 -0 -5.551323 -18.08002 -3.451096 -7.959471 9.649187 -22.84 -0 3.746563 -0 16.82708 -13.67744 30.69979 -4.91452 -4.849645 5.486944 2.818496 10.86444 -7.940254 1.579568 21.66716 5.847277 2.308351 -24.64563 9.445614 6.797342 -20.67313 11.84984 85.6066 37.66948 -18.45449 -0 0 16.31364 -6.575289 8.733166 4.381089 5.89571 -19.86174 -1.251519 -91.50403 20.56322 19.18762 0 0 -15.03094 15.77945 14.42589 -4.627619
0.873274 104.4467 4.068436 1.717941 -0.08590955 -0.3609368 3.528589 -17.04541 11.21187 -0 34.77717 -0 -5.456578 -18.01634 -3.191535 -7.761383 9.549083 -22.84646 -0 3.870735 -0 16.68879 -14.04714 30.82576 -4.709781 -4.767763 5.620396 2.824144 10.89524 -7.885876 1.679617 21.33178 5.863299 2.51234 -24.74778 9.480347 6.922864 -20.69271 11.85742 85.11193 37.56606 -18.06742 -0 0 16.99503 -6.460991 8.69898 4.050857 6.37814 -19.98182 -1.035838 -91.71195 19.46826 19.18474 0 0 -14.50455 16.72403 14.17378 -5.999728
1.20885 104.5501 5.476387 1.441642 0.2109619 -0.6612662 4.067687 -18.40898 11.30484 -0 33.18924 -0 -5.363387 -17.81597 -2.87351 -7.513612 9.45357 -22.78592 -0 4.035527 -0 16.41298 -14.53642 30.87452 -4.462455 -4.636158 5.753232 2.825029 10.91694 -7.824518 1.778823 20.93512 5.919323 2.780807 -24.83683 9.511263 7.080564 -20.67661 11.86606 84.53618 37.46552 -17.62329 -0 0 17.74544 -6.415054 8.696555 3.686468 6.955683 -20.14648 -0.7963953 -91.91979 18.18582 19.12908 0 0 -13.93858 17.77152 13.85698 -7.55299
1.567157 104.593 7.009704 1.122292 0.4849415 -0.9916684 4.572825 -19.94649 11.14556 -0 31.97099 -0 -5.457351 -17.05419 -2.539939 -7.22822 9.369625 -22.47513 -0 4.271868 -0 15.93719 -15.08271 30.60692 -4.20386 -4.398789 5.775267 2.820034 10.94971 -7.800959 1.811846 20.55475 6.054909 3.097755 -24.88314 9.489196 7.247493 -20.57729 11.89777 84.05931 37.42751 -17.24399 -0 0 18.24451 -6.645628 8.783489 3.484017 7.495048 -20.40355 -0.6280839 -91.9676 16.90575 18.932 0 0 -13.50335 18.69995 13.50463 -8.942615
1.943777 104.5899 8.728847 0.7153449 0.7855724 -1.329909 5.136061 -21.79903 10.765 -0 30.74287 -0 -5.662024 -15.85175 -2.16863 -6.862882 9.374034 -21.9853 -0 4.662549 -0 15.01682 -15.84704 29.96638 -3.87732 -4.045925 5.69847 2.820277 10.93103 -7.799041 1.802506 20.17122 6.269224 3.481399 -24.93743 9.431559 7.394138 -20.39003 11.92845 83.63576 37.30692 -16.94285 -0 0 18.59259 -7.044714 8.874969 3.364564 8.033476 -20.72049 -0.5029923 -92.00097 15.81045 18.7315 0 0 -13.1911 19.31936 13.23913 -9.958094
2.327385 104.5538 10.7029 0.2255319 1.109582 -1.64517 5.729807 -23.93712 10.12268 -0 29.4297 -0 -5.978554 -14.2059 -1.771756 -6.423123 9.531988 -21.30515 -0 5.25861 -0 13.54002 -16.85174 28.85239 -3.479919 -3.573552 5.499351 2.834467 10.82655 -7.822796 1.747072 19.82092 6.562017 3.910482 -25.02219 9.344056 7.467194 -20.0984 11.94345 83.34762 37.02492 -16.80549 -0 0 18.69576 -7.603452 8.937292 3.351482 8.523903 -21.08356 -0.4416288 -92.01951 15.10259 18.54815 0 0 -13.09515 19.46289 13.15117 -10.36711
2.69732 104.4948 13.03166 -0.3613748 1.474277 -1.89435 6.340827 -26.43352 9.127985 -0 27.78044 -0 -6.411118 -12.03842 -1.350759 -5.900835 9.953881 -20.37535 -0 6.186257 -0 11.27639 -18.1678 27.05375 -2.989429 -2.955203 5.137793 2.877849 10.57602 -7.87903 1.642443 19.539 6.943185 4.365653 -25.18042 9.241457 7.379037 -19.65846 11.91686 83.31402 36.44624 -16.95939 -0 0 18.40942 -8.336133 8.938122 3.473894 8.923218 -21.48894 -0.4646038 -92.01203 15.03035 18.38007 0 0 -13.3592 18.91177 13.3436 -9.871779
3.014833 104.4099 15.85772 -1.011585 1.857414 -2.014536 6.86019 -29.24409 7.637753 -0 25.43543 -0 -6.954192 -9.297922 -0.9402614 -5.332797 10.81815 -19.09924 -0 7.612568 -0 8.029171 -19.78767 24.31719 -2.416674 -2.179771 4.563368 2.962995 10.09928 -7.970467 1.490527 19.41515 7.407235 4.778652 -25.43689 9.160217 6.966817 -18.99535 11.80211 83.77414 35.39368 -17.61148 -0 0 17.43825 -9.282565 8.868524 3.784354 9.14202 -21.92522 -0.6151227 -91.88881 15.92168 18.11418 0 0 -14.24811 17.42276 13.88821 -8.124864
3.206467 104.2611 19.3988 -1.599965 2.127999 -1.918289 7.006125 -32.11486 5.392638 -0 21.79239 -0 -7.559912 -5.981013 -0.649748 -4.834161 12.45268 -17.3035 -0 9.82052 -0 3.683111 -21.59514 20.37867 -1.830298 -1.258399 3.71371 3.077484 9.277076 -8.070703 1.318554 19.63876 7.914734 5.00101 -25.72643 9.177567 5.928314 -17.94638 11.50867 85.14955 33.59941 -19.05229 -0 0 15.23476 -10.55433 8.790537 4.338443 9.050563 -22.36975 -0.9713796 -91.38688 18.15057 17.3424 0 0 -16.21501 14.79339 14.77143 -4.833731
